<svg xmlns="http://www.w3.org/2000/svg" version="1.1" xmlns:xlink="http://www.w3.org/1999/xlink" xmlns:svgjs="http://svgjs.dev/svgjs" width="2000" height="297" viewBox="0 0 2000 297"><g transform="matrix(1,0,0,1,-1.2121212121212466,-0.10169123506182132)"><svg viewBox="0 0 396 59" data-background-color="#121820" preserveAspectRatio="xMidYMid meet" height="297" width="2000" xmlns="http://www.w3.org/2000/svg" xmlns:xlink="http://www.w3.org/1999/xlink"><g id="tight-bounds" transform="matrix(1,0,0,1,0.2400000000000091,0.020201289120024057)"><svg viewBox="0 0 395.52 58.95959742175995" height="58.95959742175995" width="395.52"><g><svg viewBox="0 0 479.146810960639 71.42572582969103" height="58.95959742175995" width="395.52"><g transform="matrix(1,0,0,1,0,9.871428099472496)"><svg viewBox="0 0 395.52 51.68286963074604" height="51.68286963074604" width="395.52"><g><svg viewBox="0 0 395.52 51.68286963074604" height="51.68286963074604" width="395.52"><g><svg viewBox="0 0 395.52 51.68286963074604" height="51.68286963074604" width="395.52"><g transform="matrix(1,0,0,1,0,0)"><svg width="395.52" viewBox="2 -41.33000183105469 323.95001220703125 42.33000183105469" height="51.68286963074604" data-palette-color="#f5f5f5"><path d="M7.13-0.59L7.13-0.59Q5.47 1 3.93 1L3.93 1Q3.08 1 2.76 0.37L2.76 0.37Q3.32-0.2 3.32-0.76 3.32-1.32 3.15-1.61L3.15-1.61 2.83-2.17 3.22-1.44Q2.64-1.71 2.32-2.34 2-2.98 2-3.89 2-4.81 3.03-5.98L3.03-5.98Q2.54-6.67 2.54-7.5 2.54-8.33 2.82-8.87 3.1-9.42 3.54-9.86L3.54-9.86Q4.52-10.79 5.62-10.79L5.62-10.79Q6.35-10.79 6.67-10.28L6.67-10.28Q6.01-9.57 6.01-8.04 6.01-6.52 6.53-5.44 7.06-4.37 7.96-3.61L7.96-3.61Q9.86-2 12.65-2L12.65-2Q15.75-2 16.94-4.27L16.94-4.27Q17.29-4.96 17.29-5.65 17.29-6.35 16.97-6.9 16.65-7.45 16.14-7.96L16.14-7.96Q15.28-8.79 13.53-9.86L13.53-9.86Q11.84-11.06 9.55-11.06L9.55-11.06Q8.06-11.06 7.54-10.82L7.54-10.82Q7.86-11.55 7.86-12.28 7.86-13.01 6.88-13.88 5.91-14.75 5.14-15.63 4.37-16.5 3.91-17.38L3.91-17.38Q2.98-19.04 2.98-20.9 2.98-22.75 3.75-24.18 4.52-25.61 5.91-26.64L5.91-26.64Q8.81-28.81 13.35-28.81L13.35-28.81Q15.55-28.81 16.37-28.61 17.19-28.42 17.68-28.25L17.68-28.25Q18.33-28 19.29-28 20.24-28 20.62-28.42 21-28.83 21-29.19 21-29.54 20.92-29.74L20.92-29.74Q21.07-29.79 21.36-29.79 21.66-29.79 22.03-29.61 22.41-29.44 22.71-29.15L22.71-29.15Q23.29-28.49 23.29-27.75 23.29-27 23-26.61L23-26.61Q23.68-25.98 23.68-24.8 23.68-23.63 22.71-22.83L22.71-22.83Q22.92-22.39 22.92-21.75 22.92-21.12 22.24-20.53 21.56-19.95 20.95-19.95L20.95-19.95Q19.9-19.95 19.53-20.21L19.53-20.21Q19.85-21 19.85-21.91 19.85-22.83 19.36-23.66 18.87-24.49 18.12-25L18.12-25Q16.7-25.98 14.75-25.98L14.75-25.98Q12.28-25.98 11.43-24.41L11.43-24.41Q11.16-23.93 11.16-23.35 11.16-22.78 11.32-22.3 11.47-21.83 11.84-21.34L11.84-21.34Q12.55-20.39 13.84-19.53L13.84-19.53Q15.53-18.43 16.19-18.43L16.19-18.43Q17.6-18.43 18.65-19.12L18.65-19.12Q18.36-17.94 18.36-17.48L18.36-17.48Q18.36-16.77 19.48-15.84L19.48-15.84Q22.63-13.67 23.78-11.87L23.78-11.87Q24.88-10.11 24.88-7.96 24.88-5.81 23.93-4.28 22.97-2.76 21.34-1.66L21.34-1.66Q17.94 0.61 13.11 0.61L13.11 0.61Q9.81 0.61 7.13-0.59ZM6.27-22.95L6.27-22.95Q5.57-22.61 5.57-21.06 5.57-19.51 6.57-18.1 7.57-16.7 9.74-14.94L9.74-14.94Q10.25-14.55 10.25-14.18L10.25-14.18Q10.25-13.62 10.16-13.28L10.16-13.28Q10.45-13.35 11.18-13.43L11.18-13.43Q12.96-13.6 15.6-11.77L15.6-11.77Q19.8-9.18 19.8-6.32L19.8-6.32Q19.8-5.25 19.51-4.71L19.51-4.71Q20.39-4.88 20.85-6.2L20.85-6.2Q20.97-6.59 20.97-7.01L20.97-7.01Q20.97-8.98 18.84-11.02 16.7-13.06 12.7-14.97L12.7-14.97Q6.05-18.33 6.27-22.95ZM35.03-32.3L35.03-32.3Q33.79-32.3 32.63-32.96 31.47-33.62 30.86-34.72L30.86-34.72Q30.2-35.84 29.1-36.43L29.1-36.43Q28.76-36.6 28.32-36.79L28.32-36.79 29.15-37.3Q30.32-38.04 30.88-39.09 31.44-40.14 32.58-40.73 33.71-41.33 35.03-41.33L35.03-41.33Q37.77-41.33 38.99-39.04L38.99-39.04Q39.82-37.52 41.55-36.79L41.55-36.79Q41.18-36.57 40.83-36.4 40.48-36.23 40.16-36.01L40.16-36.01Q39.45-35.52 38.9-34.57 38.35-33.62 37.31-32.96 36.28-32.3 35.03-32.3ZM33.74-35.29Q33.59-35.55 33.51-35.9 33.42-36.25 33.42-37.16 33.42-38.06 34.35-39.45L34.35-39.45Q33.44-39.45 33.08-39.12 32.71-38.79 32.53-38.56 32.35-38.33 32.21-38.1 32.08-37.87 31.88-37.6L31.88-37.6Q31.42-36.94 31.13-36.79L31.13-36.79Q31.52-36.57 31.85-36.1 32.18-35.62 32.61-35.11L32.61-35.11Q33.27-34.3 34.35-34.3L34.35-34.3Q34.2-34.57 34.04-34.8 33.88-35.03 33.74-35.29ZM32.59-0.29L32.59-0.29Q31.47 0.49 30.04 0.49 28.61 0.49 27.91-0.15 27.22-0.78 27.22-1.37L27.22-1.37Q27.22-2.17 27.56-2.64L27.56-2.64Q28.1-2.22 29.15-2.22 30.2-2.22 30.95-3.59L30.95-3.59 30.95-11.38Q30.95-12.45 30.52-12.94L30.52-12.94Q29.81-13.67 27.98-14.58L27.98-14.58Q29.68-15.36 30.15-15.82L30.15-15.82Q30.95-16.63 30.95-17.8L30.95-17.8 30.95-21.36Q30.95-23.44 29.54-23.61L29.54-23.61Q29.12-23.66 28.49-23.66 27.85-23.66 27.32-23.24L27.32-23.24Q26.98-23.71 26.98-24.21 26.98-24.71 27.23-25.33 27.49-25.95 28.02-26.51L28.02-26.51Q29.29-27.83 30.95-27.83 32.61-27.83 33.96-27.25L33.96-27.25Q35.15-28.81 36.69-28.81L36.69-28.81Q39.21-28.81 39.21-26.17L39.21-26.17 39.21-17.8Q39.21-16.63 39.72-16.11L39.72-16.11Q40.48-15.36 42.19-14.58L42.19-14.58Q40.35-13.67 39.89-13.21L39.89-13.21Q39.21-12.45 39.21-11.38L39.21-11.38 39.21-3.52Q40.01-2.22 41.04-2.22 42.06-2.22 42.6-2.64L42.6-2.64Q42.94-2.17 42.94-1.48 42.94-0.78 42.25-0.15 41.55 0.49 40.16 0.49 38.77 0.49 37.57-0.29L37.57-0.29Q36.57 0.49 35.15 0.49 33.74 0.49 32.59-0.29ZM34.7-11.87Q34.71-12.7 34.73-13.26 34.74-13.82 34.74-14.16L34.74-14.16 34.74-14.82Q34.74-15.19 34.73-15.77 34.71-16.36 34.7-17.07 34.69-17.77 34.67-18.46L34.67-18.46Q34.57-20.14 34.42-20.78L34.42-20.78Q34.13-22.19 33.3-22.73L33.3-22.73 33.3-21.14Q33.3-17.02 33.12-16.3 32.93-15.58 32.53-15.22 32.13-14.87 31.35-14.6L31.35-14.6Q32.81-14.09 33.01-13.35L33.01-13.35Q33.3-12.18 33.3-8.06L33.3-8.06 33.3-6.47Q34.42-7.2 34.57-9.47L34.57-9.47Q34.69-11.04 34.7-11.87ZM50.21-0.29L50.21-0.29Q49.09 0.49 47.66 0.49 46.24 0.49 45.54-0.15 44.84-0.78 44.84-1.37L44.84-1.37Q44.84-2.17 45.19-2.64L45.19-2.64Q45.72-2.22 46.55-2.22L46.55-2.22Q47.97-2.22 48.58-3.86L48.58-3.86 48.58-11.38Q48.58-12.45 48.14-12.94L48.14-12.94Q47.43-13.67 45.6-14.58L45.6-14.58Q47.31-15.36 47.8-15.84L47.8-15.84Q48.58-16.65 48.58-17.82L48.58-17.82 48.58-31.62Q48.58-34.4 46.31-34.4L46.31-34.4Q45.48-34.4 44.94-33.98L44.94-33.98Q44.6-34.45 44.6-34.95 44.6-35.45 44.86-35.91 45.11-36.38 45.65-36.77L45.65-36.77Q46.8-37.6 48.55-37.6 50.31-37.6 51.29-37.38L51.29-37.38Q52.63-39.06 54.32-39.06L54.32-39.06Q56.76-39.06 56.76-36.43L56.76-36.43 56.76-17.82Q56.76-16.65 57.27-16.14L57.27-16.14Q58.03-15.36 59.74-14.58L59.74-14.58Q57.91-13.67 57.44-13.21L57.44-13.21Q56.76-12.45 56.76-11.38L56.76-11.38 56.76-3.86Q57.34-2.22 58.78-2.22L58.78-2.22Q59.61-2.22 60.15-2.64L60.15-2.64Q60.49-2.17 60.49-1.48 60.49-0.78 59.8-0.15 59.1 0.49 57.71 0.49 56.32 0.49 55.12-0.29L55.12-0.29Q54.12 0.49 52.74 0.49 51.36 0.49 50.21-0.29ZM50.92-8.08L50.92-6.49Q52.02-7.2 52.22-9.59L52.22-9.59Q52.29-10.64 52.31-11.94 52.34-13.23 52.35-13.78 52.36-14.33 52.36-14.6L52.36-14.6 52.36-16.8Q52.36-17.7 52.34-18.85L52.34-18.85 52.34-21.24Q52.27-27.71 52.09-28.44L52.09-28.44Q51.75-29.98 50.92-30.52L50.92-30.52 50.92-22.29Q50.92-17.24 50.81-16.66 50.7-16.09 50.63-15.82L50.63-15.82Q50.41-15.06 48.97-14.58L48.97-14.58Q50.43-14.06 50.63-13.35L50.63-13.35Q50.92-12.18 50.92-8.08L50.92-8.08ZM84.83-7.37L84.83-7.37Q85.37-8.4 86.81-8.4L86.81-8.4Q87.79-8.4 88.32-7.59L88.32-7.59Q88.76-6.96 88.76-6.04 88.76-5.13 88.3-4.2 87.83-3.27 87.03-2.51 86.22-1.76 85.19-1.17 84.15-0.59 82.98-0.2L82.98-0.2Q80.56 0.61 77.95 0.61 75.33 0.61 73.05-0.26 70.77-1.12 69.13-2.69L69.13-2.69Q65.93-5.76 65.23-11.13L65.23-11.13Q65.06-12.33 64.67-12.84L64.67-12.84Q63.93-13.75 62.25-14.58L62.25-14.58Q64.37-15.53 64.96-17.63L64.96-17.63Q65.13-18.21 65.23-18.8L65.23-18.8Q65.84-23.1 69.57-26.12L69.57-26.12Q73.19-29.05 77.65-29.05L77.65-29.05Q82.29-29.05 85.69-25.78L85.69-25.78Q89.2-22.41 89.2-17.5L89.2-17.5Q89.2-17.33 89.19-17.16 89.18-16.99 89.2-16.85L89.2-16.85Q89.25-16.53 89.59-16.48L89.59-16.48Q90.03-15.92 90.03-15.28L90.03-15.28Q90.03-13.82 88.47-13.55L88.47-13.55Q88.08-13.48 87.25-13.35L87.25-13.35 73.48-11.16 73.48-8.81Q73.48-5.98 75.19-4.32L75.19-4.32Q76.8-2.73 79.26-2.73L79.26-2.73Q81.88-2.73 83.46-3.81L83.46-3.81Q84.95-4.83 84.95-6.49L84.95-6.49Q84.95-6.88 84.83-7.37ZM73.48-14.11L80.56-15.26 80.56-22.09Q80.56-23.71 79.92-24.46L79.92-24.46Q78.8-25.76 77.7-25.76 76.6-25.76 75.87-25.43 75.14-25.1 74.6-24.39L74.6-24.39Q73.48-22.9 73.48-19.75L73.48-19.75 73.48-14.11ZM82.66-15.63L84.17-15.87 84.17-16.63Q84.17-21.17 83.42-22.12L83.42-22.12Q83.07-22.53 82.66-22.73L82.66-22.73 82.66-15.63ZM69.5-6.47L69.5-6.47Q69.84-6.74 69.84-7.08L69.84-7.08Q69.84-7.62 69.62-8.45L69.62-8.45Q68.62-12.28 68.62-13.78 68.62-15.28 68.72-16.13 68.82-16.97 68.99-17.82L68.99-17.82Q69.28-19.48 69.62-20.75L69.62-20.75Q69.84-21.58 69.84-21.88L69.84-21.88Q69.84-22.46 69.5-22.73L69.5-22.73Q68.47-21.51 67.94-19.46 67.4-17.41 67.06-15.84L67.06-15.84Q66.94-15.19 65.62-14.58L65.62-14.58Q66.94-13.96 67.06-13.35L67.06-13.35Q67.96-9.23 68.55-8.11 69.13-6.98 69.5-6.47ZM97.84-0.29L97.84-0.29Q96.72 0.49 95.28 0.49 93.84 0.49 93.19-0.18 92.54-0.85 92.54-1.46L92.54-1.46Q92.54-2.27 92.81-2.64L92.81-2.64Q93.35-2.22 94.18-2.22L94.18-2.22Q95.74-2.22 96.21-3.74L96.21-3.74 96.21-11.33Q96.21-12.4 95.74-12.89L95.74-12.89Q95.03-13.7 93.23-14.58L93.23-14.58Q94.94-15.36 95.4-15.82L95.4-15.82Q96.21-16.63 96.21-17.8L96.21-17.8 96.21-21.36Q96.21-23.44 94.79-23.61L94.79-23.61Q94.37-23.66 93.74-23.66 93.11-23.66 92.57-23.24L92.57-23.24Q92.23-23.71 92.23-24.21 92.23-24.71 92.48-25.33 92.74-25.95 93.25-26.51L93.25-26.51Q94.55-27.83 96.24-27.83 97.94-27.83 99.06-27.29L99.06-27.29Q100.41-28.81 101.8-28.81 103.19-28.81 103.73-28.16 104.26-27.51 104.26-26.17L104.26-26.17 104.26-23.88Q105.53-26.15 107.73-27.48 109.93-28.81 112.39-28.81 114.86-28.81 116.36-28.16 117.86-27.51 118.84-26.32L118.84-26.32Q120.74-23.95 120.74-19.43L120.74-19.43 120.74-17.82Q120.74-16.65 121.25-16.14L121.25-16.14Q122.01-15.36 123.72-14.58L123.72-14.58Q121.89-13.67 121.43-13.21L121.43-13.21Q120.74-12.45 120.74-11.38L120.74-11.38 120.74-3.74Q121.21-2.22 122.77-2.22L122.77-2.22Q123.6-2.22 124.14-2.64L124.14-2.64Q124.4-2.27 124.4-1.56 124.4-0.85 123.76-0.18 123.11 0.49 121.77 0.49 120.42 0.49 119.33-0.27L119.33-0.27Q118.35 0.49 117.04 0.49 115.74 0.49 114.71-0.24L114.71-0.24Q113.64 0.49 112.42 0.49 111.2 0.49 110.49-0.12 109.78-0.73 109.78-1.88L109.78-1.88Q109.78-2.42 110.15-2.73L110.15-2.73Q110.71-2.29 111.27-2.29L111.27-2.29Q112.34-2.29 112.81-3.49L112.81-3.49 112.81-18.04Q112.81-22.78 110.49-23.54L110.49-23.54Q109.73-23.78 108.85-23.78 107.97-23.78 107.22-23.43 106.46-23.07 105.85-22.44L105.85-22.44Q104.51-21.02 104.26-19.07L104.26-19.07 104.26-3.49Q104.73-2.29 105.8-2.29L105.8-2.29Q106.36-2.29 106.92-2.73L106.92-2.73Q107.29-2.42 107.29-1.57 107.29-0.73 106.58-0.12 105.87 0.49 104.71 0.49 103.55 0.49 102.6-0.24L102.6-0.24Q101.67 0.49 100.33 0.49 98.99 0.49 97.84-0.29ZM115.15-15.77L115.15-6.47Q116.37-6.93 116.49-9.67L116.49-9.67Q116.64-12.4 116.64-14.82 116.64-17.24 116.45-18.81 116.25-20.39 115.88-21.28 115.52-22.17 115.02-22.57 114.52-22.97 113.93-23.27L113.93-23.27Q114.86-21.07 115-19.26 115.15-17.46 115.15-15.77L115.15-15.77ZM99.95-11.87Q99.97-12.67 99.98-13.22 99.99-13.77 99.99-14.11 99.99-14.45 99.99-14.81 99.99-15.16 99.98-15.75 99.97-16.33 99.95-17.04 99.94-17.75 99.89-18.43L99.89-18.43Q99.82-20.12 99.67-20.75L99.67-20.75Q99.38-22.17 98.55-22.71L98.55-22.71 98.55-21.12Q98.55-17.02 98.37-16.3 98.18-15.58 97.78-15.21 97.38-14.84 96.6-14.58L96.6-14.58Q98.06-14.06 98.26-13.35L98.26-13.35Q98.55-12.18 98.55-8.08L98.55-8.08 98.55-6.49Q99.67-7.23 99.84-9.47L99.84-9.47Q99.94-11.06 99.95-11.87ZM142.79-3.58Q143.25-4.05 143.52-4.8 143.79-5.54 143.79-6.36 143.79-7.18 143.69-7.86L143.69-7.86Q143.86-8.23 144.62-8.44 145.37-8.64 145.62-8.64L145.62-8.64Q146.55-8.64 147.11-7.95 147.67-7.25 147.67-6.02 147.67-4.79 146.95-3.59 146.23-2.39 145.03-1.46L145.03-1.46Q142.37 0.61 138.83 0.61L138.83 0.61Q132.09 0.61 129.89-4.49L129.89-4.49Q129.09-6.37 129.09-9.2L129.09-9.2 129.09-12.18Q129.09-13.33 126.57-14.6L126.57-14.6Q129.09-16.04 129.09-18.48L129.09-18.48 129.09-21.36Q129.09-24.15 126.82-24.15L126.82-24.15Q125.99-24.15 125.45-23.73L125.45-23.73Q125.11-24.19 125.11-24.69 125.11-25.2 125.29-25.79 125.48-26.39 125.94-26.88L125.94-26.88Q127.11-28.15 129.58-27.76L129.58-27.76 129.58-28.54Q129.58-31.1 130.87-33.06L130.87-33.06Q132.02-34.81 132.91-34.81 133.8-34.81 134.29-34.2L134.29-34.2Q134.7-36.13 135.39-36.99 136.07-37.84 137.34-37.84L137.34-37.84 137.34-27.66 145.28-27.66Q145.47-27.27 145.47-26.35 145.47-25.44 144.76-24.89 144.05-24.34 143.05-24.34L143.05-24.34 137.34-24.34 137.34-7.81Q137.34-3.56 139.27-2.83L139.27-2.83Q139.83-2.64 140.48-2.64 141.13-2.64 141.72-2.87 142.32-3.1 142.79-3.58ZM131.43-8.06L131.43-6.47Q132.58-7.2 132.73-9.52L132.73-9.52Q132.82-11.18 132.84-12.11 132.85-13.04 132.86-13.61 132.87-14.18 132.87-14.5L132.87-14.5 132.87-15.48Q132.87-16.19 132.86-17.3 132.85-18.41 132.84-19.71 132.82-21.02 132.78-22.22L132.78-22.22Q132.7-25.1 132.56-25.73L132.56-25.73Q132.26-27.15 131.43-27.69L131.43-27.69 131.43-20.07Q131.43-16.67 131.32-16.48 131.21-16.28 131.14-16.02L131.14-16.02Q130.92-15.28 129.48-14.79L129.48-14.79Q130.94-14.28 131.14-13.55L131.14-13.55Q131.43-12.38 131.43-8.06L131.43-8.06ZM160.82-0.27L160.82-0.27Q159.56 0.49 157.91 0.49 156.26 0.49 155.01-0.29L155.01-0.29Q153.77 0.49 152.71 0.49 151.65 0.49 150.96 0.31 150.28 0.12 149.79-0.2L149.79-0.2Q148.72-0.83 148.72-1.78L148.72-1.78Q148.72-2.27 148.98-2.64L148.98-2.64Q149.52-2.22 150.35-2.22L150.35-2.22Q152.52-2.22 153.35-4.08L153.35-4.08 153.35-16.04Q153.35-17.14 152.91-17.68L152.91-17.68Q152.16-18.58 150.38-19.46L150.38-19.46Q152.04-20.21 152.52-20.8L152.52-20.8Q153.35-21.75 153.35-22.95L153.35-22.95 153.35-33.25Q152.52-35.13 150.35-35.13L150.35-35.13Q149.35-35.13 148.81-34.72L148.81-34.72Q148.54-35.08 148.54-35.56 148.54-36.04 148.85-36.45 149.15-36.87 149.69-37.16L149.69-37.16Q150.84-37.84 152.32-37.84 153.79-37.84 155.01-37.04L155.01-37.04Q156.28-37.84 157.93-37.84 159.58-37.84 160.92-36.87L160.92-36.87Q163.63-37.84 167.37-37.84L167.37-37.84Q169.74-37.84 171.42-37.35L171.42-37.35 173.52-36.77Q173.91-36.67 174.28-36.67L174.28-36.67Q174.96-36.67 174.96-37.65L174.96-37.65Q174.96-37.89 174.79-38.48L174.79-38.48Q175.47-38.6 176.52-38.6 177.57-38.6 178.31-37.9 179.04-37.21 179.04-35.85 179.04-34.5 178.5-33.76L178.5-33.76Q179.23-32.64 179.23-31.13 179.23-29.61 178.26-28.52L178.26-28.52Q178.57-27.73 178.57-26.94 178.57-26.15 178.35-25.54 178.13-24.93 177.79-24.51L177.79-24.51Q177.11-23.68 176.16-23.68L176.16-23.68Q175.3-23.68 174.52-24.1L174.52-24.1Q174.84-24.76 174.84-25.67 174.84-26.59 174.75-27.21 174.67-27.83 174.5-28.52L174.5-28.52Q174.15-30.05 173.35-31.54L173.35-31.54Q171.74-34.55 168.3-34.55L168.3-34.55Q164.02-34.55 162.34-32.32L162.34-32.32 162.34-21.04Q163.12-20.61 163.78-20.61 164.44-20.61 164.85-20.63 165.27-20.65 165.68-20.7L165.68-20.7Q166.73-20.83 167.27-21.09L167.27-21.09Q168.32-21.58 168.32-23.3 168.32-25.02 167.81-25.88L167.81-25.88Q168.2-26.22 169.03-26.22L169.03-26.22Q170.66-26.22 171.4-24.54L171.4-24.54Q171.66-23.93 171.66-23.25 171.66-22.58 171.37-21.75L171.37-21.75Q172.37-20.61 172.37-19.03 172.37-17.46 171.37-16.31L171.37-16.31Q171.66-15.48 171.66-14.81 171.66-14.14 171.4-13.53 171.13-12.92 170.74-12.55L170.74-12.55Q169.98-11.87 169.03-11.87L169.03-11.87Q168.34-11.87 167.81-12.26L167.81-12.26Q168.32-13.11 168.32-14.26L168.32-14.26Q168.32-16.53 167.07-17.07L167.07-17.07Q166.03-17.48 164.57-17.48 163.12-17.48 162.34-17.04L162.34-17.04 162.34-4.15Q163.27-2.22 165.83-2.22L165.83-2.22Q166.66-2.22 167.2-2.64L167.2-2.64Q167.47-2.27 167.47-1.79 167.47-1.32 167.18-0.9 166.9-0.49 166.39-0.2L166.39-0.2Q165.29 0.49 163.77 0.49 162.24 0.49 160.82-0.27ZM155.7-9.64L155.7-6.47Q156.92-6.93 157.07-9.67L157.07-9.67Q157.19-12.4 157.19-17.24 157.19-22.07 157.17-23.67 157.16-25.27 157.14-26.25L157.14-26.25Q157.07-29.13 156.59-29.72 156.11-30.32 155.7-30.52L155.7-30.52Q155.7-22.02 155.4-20.85L155.4-20.85Q155.06-19.87 153.74-19.46L153.74-19.46Q155.21-18.95 155.4-18.21L155.4-18.21Q155.7-17.04 155.7-9.64L155.7-9.64ZM203.25-7.37L203.25-7.37Q203.79-8.4 205.23-8.4L205.23-8.4Q206.21-8.4 206.75-7.59L206.75-7.59Q207.18-6.96 207.18-6.04 207.18-5.13 206.72-4.2 206.26-3.27 205.45-2.51 204.65-1.76 203.61-1.17 202.57-0.59 201.4-0.2L201.4-0.2Q198.98 0.61 196.37 0.61 193.76 0.61 191.47-0.26 189.19-1.12 187.56-2.69L187.56-2.69Q184.36-5.76 183.65-11.13L183.65-11.13Q183.48-12.33 183.09-12.84L183.09-12.84Q182.36-13.75 180.67-14.58L180.67-14.58Q182.8-15.53 183.38-17.63L183.38-17.63Q183.55-18.21 183.65-18.8L183.65-18.8Q184.26-23.1 188-26.12L188-26.12Q191.61-29.05 196.08-29.05L196.08-29.05Q200.71-29.05 204.11-25.78L204.11-25.78Q207.62-22.41 207.62-17.5L207.62-17.5Q207.62-17.33 207.61-17.16 207.6-16.99 207.62-16.85L207.62-16.85Q207.67-16.53 208.01-16.48L208.01-16.48Q208.45-15.92 208.45-15.28L208.45-15.28Q208.45-13.82 206.89-13.55L206.89-13.55Q206.5-13.48 205.67-13.35L205.67-13.35 191.9-11.16 191.9-8.81Q191.9-5.98 193.61-4.32L193.61-4.32Q195.22-2.73 197.69-2.73L197.69-2.73Q200.3-2.73 201.89-3.81L201.89-3.81Q203.38-4.83 203.38-6.49L203.38-6.49Q203.38-6.88 203.25-7.37ZM191.9-14.11L198.98-15.26 198.98-22.09Q198.98-23.71 198.35-24.46L198.35-24.46Q197.22-25.76 196.13-25.76 195.03-25.76 194.29-25.43 193.56-25.1 193.02-24.39L193.02-24.39Q191.9-22.9 191.9-19.75L191.9-19.75 191.9-14.11ZM201.08-15.63L202.59-15.87 202.59-16.63Q202.59-21.17 201.84-22.12L201.84-22.12Q201.5-22.53 201.08-22.73L201.08-22.73 201.08-15.63ZM187.92-6.47L187.92-6.47Q188.26-6.74 188.26-7.08L188.26-7.08Q188.26-7.62 188.04-8.45L188.04-8.45Q187.04-12.28 187.04-13.78 187.04-15.28 187.14-16.13 187.24-16.97 187.41-17.82L187.41-17.82Q187.7-19.48 188.04-20.75L188.04-20.75Q188.26-21.58 188.26-21.88L188.26-21.88Q188.26-22.46 187.92-22.73L187.92-22.73Q186.9-21.51 186.36-19.46 185.82-17.41 185.48-15.84L185.48-15.84Q185.36-15.19 184.04-14.58L184.04-14.58Q185.36-13.96 185.48-13.35L185.48-13.35Q186.38-9.23 186.97-8.11 187.56-6.98 187.92-6.47ZM216.34-0.29L216.34-0.29Q215.21 0.49 213.79 0.49 212.36 0.49 211.66-0.15 210.97-0.78 210.97-1.37L210.97-1.37Q210.97-2.17 211.31-2.64L211.31-2.64Q211.85-2.22 212.68-2.22L212.68-2.22Q214.09-2.22 214.7-3.86L214.7-3.86 214.7-11.38Q214.7-12.45 214.26-12.94L214.26-12.94Q213.55-13.67 211.72-14.58L211.72-14.58Q213.43-15.36 213.92-15.84L213.92-15.84Q214.7-16.65 214.7-17.82L214.7-17.82 214.7-31.62Q214.7-34.4 212.43-34.4L212.43-34.4Q211.6-34.4 211.06-33.98L211.06-33.98Q210.72-34.45 210.72-34.95 210.72-35.45 210.98-35.91 211.23-36.38 211.77-36.77L211.77-36.77Q212.92-37.6 214.68-37.6 216.44-37.6 217.41-37.38L217.41-37.38Q218.75-39.06 220.44-39.06L220.44-39.06Q222.88-39.06 222.88-36.43L222.88-36.43 222.88-17.82Q222.88-16.65 223.39-16.14L223.39-16.14Q224.15-15.36 225.86-14.58L225.86-14.58Q224.03-13.67 223.56-13.21L223.56-13.21Q222.88-12.45 222.88-11.38L222.88-11.38 222.88-3.86Q223.47-2.22 224.91-2.22L224.91-2.22Q225.74-2.22 226.27-2.64L226.27-2.64Q226.62-2.17 226.62-1.48 226.62-0.78 225.92-0.15 225.22 0.49 223.83 0.49 222.44 0.49 221.24-0.29L221.24-0.29Q220.24 0.49 218.86 0.49 217.48 0.49 216.34-0.29ZM217.05-8.08L217.05-6.49Q218.14-7.2 218.34-9.59L218.34-9.59Q218.41-10.64 218.44-11.94 218.46-13.23 218.47-13.78 218.49-14.33 218.49-14.6L218.49-14.6 218.49-16.8Q218.49-17.7 218.46-18.85L218.46-18.85 218.46-21.24Q218.39-27.71 218.22-28.44L218.22-28.44Q217.88-29.98 217.05-30.52L217.05-30.52 217.05-22.29Q217.05-17.24 216.94-16.66 216.83-16.09 216.75-15.82L216.75-15.82Q216.53-15.06 215.09-14.58L215.09-14.58Q216.56-14.06 216.75-13.35L216.75-13.35Q217.05-12.18 217.05-8.08L217.05-8.08ZM234.25-0.29L234.25-0.29Q233.13 0.49 231.7 0.49 230.28 0.49 229.58-0.15 228.88-0.78 228.88-1.37L228.88-1.37Q228.88-2.17 229.23-2.64L229.23-2.64Q229.76-2.22 230.59-2.22L230.59-2.22Q232.01-2.22 232.62-3.86L232.62-3.86 232.62-11.38Q232.62-12.45 232.18-12.94L232.18-12.94Q231.47-13.67 229.64-14.58L229.64-14.58Q231.35-15.36 231.84-15.84L231.84-15.84Q232.62-16.65 232.62-17.82L232.62-17.82 232.62-31.62Q232.62-34.4 230.35-34.4L230.35-34.4Q229.52-34.4 228.98-33.98L228.98-33.98Q228.64-34.45 228.64-34.95 228.64-35.45 228.9-35.91 229.15-36.38 229.69-36.77L229.69-36.77Q230.84-37.6 232.59-37.6 234.35-37.6 235.33-37.38L235.33-37.38Q236.67-39.06 238.36-39.06L238.36-39.06Q240.8-39.06 240.8-36.43L240.8-36.43 240.8-17.82Q240.8-16.65 241.31-16.14L241.31-16.14Q242.07-15.36 243.78-14.58L243.78-14.58Q241.95-13.67 241.48-13.21L241.48-13.21Q240.8-12.45 240.8-11.38L240.8-11.38 240.8-3.86Q241.38-2.22 242.82-2.22L242.82-2.22Q243.65-2.22 244.19-2.64L244.19-2.64Q244.53-2.17 244.53-1.48 244.53-0.78 243.84-0.15 243.14 0.49 241.75 0.49 240.36 0.49 239.16-0.29L239.16-0.29Q238.16 0.49 236.78 0.49 235.4 0.49 234.25-0.29ZM234.96-8.08L234.96-6.49Q236.06-7.2 236.26-9.59L236.26-9.59Q236.33-10.64 236.35-11.94 236.38-13.23 236.39-13.78 236.4-14.33 236.4-14.6L236.4-14.6 236.4-16.8Q236.4-17.7 236.38-18.85L236.38-18.85 236.38-21.24Q236.31-27.71 236.13-28.44L236.13-28.44Q235.79-29.98 234.96-30.52L234.96-30.52 234.96-22.29Q234.96-17.24 234.85-16.66 234.74-16.09 234.67-15.82L234.67-15.82Q234.45-15.06 233.01-14.58L233.01-14.58Q234.47-14.06 234.67-13.35L234.67-13.35Q234.96-12.18 234.96-8.08L234.96-8.08ZM253.08-2.73Q251.54-4.3 250.65-6.45 249.76-8.59 249.56-10.13 249.36-11.67 249.23-12.11 249.1-12.55 248.78-12.94L248.78-12.94Q248.14-13.75 246.46-14.58L246.46-14.58Q248.58-15.53 249.17-17.63L249.17-17.63Q249.34-18.21 249.44-18.8L249.44-18.8Q250.07-23.17 253.66-26.11 257.25-29.05 262.04-29.05L262.04-29.05Q267.02-29.05 270.6-26.07L270.6-26.07Q274.1-23.17 274.73-18.8L274.73-18.8Q274.95-17.26 275.39-16.55L275.39-16.55Q276.22-15.26 277.71-14.58L277.71-14.58Q276.05-13.77 275.56-13.16L275.56-13.16Q274.9-12.3 274.73-11.13L274.73-11.13Q273.95-5.37 270.73-2.38 267.5 0.61 262.13 0.61L262.13 0.61Q256.37 0.61 253.08-2.73L253.08-2.73ZM266.23-19.51Q266.23-25.61 262.08-25.61 257.93-25.61 257.93-19.51L257.93-19.51 257.93-8.69Q257.93-2.83 262.06-2.83L262.06-2.83Q266.23-2.83 266.23-8.69L266.23-8.69 266.23-19.51ZM268.58-22.73L268.58-6.47Q269.8-6.93 269.92-9.67L269.92-9.67Q270.07-12.4 270.07-13.73 270.07-15.06 270.06-15.95 270.04-16.85 270.02-17.8L270.02-17.8Q269.92-21.36 269.46-21.95 268.99-22.53 268.58-22.73L268.58-22.73ZM253.95-6.47L253.95-6.47Q254.3-6.74 254.3-7.08L254.3-7.08Q254.3-7.62 254.08-8.45L254.08-8.45Q253.08-12.28 253.08-13.78 253.08-15.28 253.17-16.13 253.27-16.97 253.42-17.82L253.42-17.82Q253.73-19.48 254.08-20.75L254.08-20.75Q254.3-21.58 254.3-21.88L254.3-21.88Q254.3-22.46 253.95-22.73L253.95-22.73Q252.93-21.51 252.39-19.46 251.85-17.41 251.51-15.84L251.51-15.84Q251.39-15.19 250.07-14.58L250.07-14.58Q251.39-13.96 251.51-13.35L251.51-13.35Q252.42-9.23 253-8.11 253.59-6.98 253.95-6.47ZM325.7-25.17L325.7-25.17Q325.12-25.51 324.2-25.51 323.29-25.51 322.85-25.44 322.41-25.37 322.02-25.17L322.02-25.17Q321.19-24.76 320.82-23.63L320.82-23.63 319.06-18.51Q318.8-17.7 318.8-17.1 318.8-16.5 319-16.14 319.21-15.77 319.5-15.43L319.5-15.43Q320.16-14.72 320.6-14.6L320.6-14.6Q318.7-14.09 318.09-13.6L318.09-13.6Q317.18-12.92 316.72-11.72L316.72-11.72 313.23-1.15Q312.42 0.88 310.67 0.88L310.67 0.88Q310.15 0.88 309.57 0.71L309.57 0.71 301.41-19.53 295.7-1.15Q295.29 0.17 293.99 0.71L293.99 0.71Q293.58 0.88 293.1 0.88 292.62 0.88 292.04 0.71L292.04 0.71 286.86-11.57Q286.23-13.13 283.93-14.04L283.93-14.04 282.52-14.58Q284.27-16.09 284.27-16.65 284.27-17.21 284.15-17.7 284.03-18.19 283.77-18.92 283.52-19.65 283.13-20.7L283.13-20.7 282.13-23.24Q281.54-24.71 281.17-25.02L281.17-25.02Q280.54-25.61 279.56-25.61 278.59-25.61 278.05-25.2L278.05-25.2Q277.78-25.46 277.78-26.25 277.78-27.03 278.44-27.67 279.1-28.32 280.53-28.32 281.95-28.32 283.18-27.44L283.18-27.44Q284.18-28.32 285.65-28.32 287.13-28.32 288.25-27.49L288.25-27.49Q289.33-28.32 290.72-28.32 292.11-28.32 292.89-27.67 293.67-27.03 293.67-26.05L293.67-26.05Q293.67-25.46 293.31-25.1L293.31-25.1Q292.72-25.54 292.22-25.54 291.72-25.54 291.48-25.48 291.23-25.42 291.04-25.27L291.04-25.27Q290.55-24.93 290.6-24.32L290.6-24.32 295.6-11.3 299.68-23.8Q298.85-25.61 297.51-25.61L297.51-25.61Q296.7-25.61 296.14-25.2L296.14-25.2Q295.87-25.46 295.87-26.25 295.87-27.03 296.64-27.67 297.41-28.32 298.75-28.32 300.09-28.32 301.07-27.49L301.07-27.49Q302.12-28.32 303.51-28.32 304.9-28.32 306-27.51L306-27.51Q306.95-28.32 308-28.32 309.05-28.32 309.63-28.19 310.2-28.05 310.62-27.78L310.62-27.78Q311.54-27.25 311.54-26.29L311.54-26.29Q311.54-25.71 311.18-25.34L311.18-25.34Q310.59-25.78 309.98-25.78 309.37-25.78 309.02-25.32 308.66-24.85 308.66-24.28 308.66-23.71 308.81-23.24L308.81-23.24 308.76-23.36 313.23-11.3 317.48-23.88Q317.4-25.63 315.33-25.63L315.33-25.63Q314.35-25.63 313.55-25.17L313.55-25.17Q313.28-25.61 313.28-26.35 313.28-27.1 313.94-27.71 314.6-28.32 315.76-28.32 316.92-28.32 317.75-27.54L317.75-27.54Q318.62-28.32 319.75-28.32 320.87-28.32 321.73-27.61L321.73-27.61Q322.63-28.32 323.69-28.32 324.75-28.32 325.35-27.73 325.95-27.15 325.95-26.34 325.95-25.54 325.7-25.17ZM290.84-23.41L290.62-24.02Q290.7-23.75 290.84-23.41L290.84-23.41ZM308.18-12.18L303.81-22.73Q303.46-22.24 303.46-21.56 303.46-20.87 303.6-20.31 303.73-19.75 303.95-19.12 304.17-18.48 304.46-17.77L304.46-17.77 305-16.36 309.32-6.47Q309.54-6.71 309.54-7.3 309.54-7.89 309.48-8.23 309.42-8.57 309.26-9.08 309.1-9.59 308.83-10.35L308.83-10.35 308.18-12.18ZM292.75-6.47L286.03-22.73Q285.69-22.51 285.69-21.88 285.69-21.24 285.71-20.94 285.74-20.63 285.84-20.21L285.84-20.21Q286.03-19.34 286.64-17.88 287.25-16.43 287.26-16.11 287.28-15.8 287.2-15.59 287.13-15.38 286.98-15.19L286.98-15.19Q286.69-14.7 286.28-14.55L286.28-14.55Q287.99-14.21 288.4-13.48L288.4-13.48 288.74-12.82Q288.89-12.5 289.08-12.01L289.08-12.01 290.43-9.01Q290.94-7.89 291.43-7.28 291.92-6.67 292.75-6.47L292.75-6.47Z" opacity="1" transform="matrix(1,0,0,1,0,0)" fill="#f5f5f5" class="undefined-text-0" data-fill-palette-color="primary" id="text-0"></path></svg></g></svg></g></svg></g></svg></g><g transform="matrix(1,0,0,1,407.721085130948,0)"><svg viewBox="0 0 71.42572582969103 71.42572582969103" height="71.42572582969103" width="71.42572582969103"><g data-palette-color="#f5f5f5"><rect width="19.523031726782218" height="71.42572582969103" fill="#f5f5f5" stroke="transparent" data-fill-palette-color="accent" x="0" fill-opacity="1"></rect><rect width="19.523031726782218" height="71.42572582969103" fill="#f5f5f5" stroke="transparent" data-fill-palette-color="accent" x="23.80857527656368" fill-opacity="0.75"></rect><rect width="19.523031726782218" height="71.42572582969103" fill="#f5f5f5" stroke="transparent" data-fill-palette-color="accent" x="47.61715055312736" fill-opacity="0.5"></rect></g></svg></g></svg></g><defs></defs></svg><rect width="395.52" height="58.95959742175995" fill="none" stroke="none" visibility="hidden"></rect></g></svg></g></svg>